<svg width="93" height="93" viewBox="0 0 93 93" fill="none" xmlns="http://www.w3.org/2000/svg">
<path d="M52.8774 0.445798C78.3183 3.9712 96.0747 27.4432 92.5554 52.8778C89.03 78.3185 65.5579 96.0746 40.1232 92.5554C14.6946 89.0361 -3.07781 65.552 0.445156 40.1236C3.96628 14.689 27.4427 -3.0796 52.8774 0.445798Z" fill="#171717"/>
<path fill-rule="evenodd" clip-rule="evenodd" d="M25.8078 20.7066L25.8078 20.7065L25.8077 20.7065L25.8062 20.7047L25.8061 20.7046C25.7165 20.602 25.6224 20.4944 25.5225 20.3815C24.7664 19.5214 25.4631 18.3526 26.2429 17.0443C26.9862 15.7974 27.805 14.4237 27.5132 13.0701C27.1905 11.5504 26.1595 11.9828 25.0419 12.4515L24.9785 12.4781C24.0698 12.8607 23.1132 13.2434 22.4437 12.6097C21.2959 11.5254 23.0642 10.7027 25.601 9.52243C26.407 9.14745 27.2906 8.73637 28.1828 8.26934C29.9867 7.32055 31.1766 7.46216 32.5508 7.6257L32.6366 7.6359C34.0475 7.80329 35.6736 7.96452 38.3817 6.99604C40.4946 6.23643 41.5868 5.55997 42.5182 4.9831C43.9692 4.08443 45.03 3.42744 48.9513 3.07426C53.6725 2.65304 55.6403 4.08677 57.9675 5.78237C58.8111 6.39703 59.7019 7.04611 60.7883 7.65371C64.8774 9.92545 57.7214 10.4038 57.7214 10.4038C57.7214 10.4038 54.9654 7.33093 50.4877 9.64452C47.7449 11.0617 47.557 11.9181 47.2296 13.4104C47.0225 14.3544 46.7595 15.5528 45.7589 17.3086C44.2547 19.9479 44.1052 21.2001 43.9591 22.4235C43.8544 23.3006 43.7515 24.1628 43.1524 25.5109C42.046 28.0164 41.1313 27.0013 39.7616 25.4814C39.3698 25.0466 38.9408 24.5705 38.4595 24.1237C36.9774 22.7471 35.8684 22.7941 34.0863 22.8697L33.9757 22.8744C33.1687 22.9102 32.2241 22.9401 31.0524 22.8504C27.4424 22.5774 27.0407 22.1176 25.8078 20.7066ZM8.63314 27.5675C8.66828 27.7607 8.47362 28.0166 8.2249 28.3435C7.49604 29.3015 6.30293 30.8698 9.06776 33.2588C10.2407 34.2698 11.1024 35.2379 11.816 36.0396C13.3643 37.7791 14.2154 38.7353 16.036 37.6468C18.5149 36.1743 19.1065 36.1272 20.9682 35.9791C21.1095 35.9678 21.258 35.956 21.4153 35.9429C22.5018 35.8553 22.9077 35.2069 23.4018 34.4174C23.9191 33.5909 24.5332 32.6098 26.1262 31.9555C27.4055 31.4234 28.6011 31.8419 29.7011 32.2544L29.83 32.3032C31.3426 32.8768 32.6684 33.3794 33.7962 31.3039C34.1632 30.6247 34.5249 30.047 34.8388 29.5458C36.2071 27.3606 36.6648 26.6297 32.6724 25.2778C30.6876 24.6082 29.1332 24.9192 27.812 25.2241C27.7378 25.2412 27.6643 25.2583 27.5915 25.2752C25.7536 25.7025 24.3702 26.0242 22.9039 23.4364C21.6275 21.1849 22.1006 19.0538 22.4234 17.5999C22.7476 16.1392 22.9202 15.3619 21.0147 15.8323C20.3447 16.0001 19.6583 16.1195 18.9815 16.2372C15.8254 16.7862 12.8767 17.299 12.7575 22.5219C12.6129 28.8589 8.63314 27.5675 8.63314 27.5675ZM42.9827 56.1075C42.3318 55.8057 42.0154 55.6589 41.1258 54.3262C39.5263 51.9402 39.805 50.9984 40.0873 50.044C40.378 49.0614 40.6726 48.0654 38.9258 45.4665C36.3052 41.5696 35.4236 41.4441 32.9703 41.095L32.9702 41.095C32.1943 40.9846 31.2611 40.8518 30.066 40.5703C25.0981 39.3866 24.7454 38.3642 26.9514 34.7593C28.7682 31.8014 33.7982 34.0546 38.9953 36.3825C40.1427 36.8965 41.2982 37.4141 42.4291 37.8801C48.6644 40.4567 52.8911 43.4818 57.4704 47.5411C61.1856 50.8385 60.5651 55.1498 59.9578 59.3694L59.9578 59.3695C59.8175 60.3443 59.6779 61.3141 59.5927 62.2655C59.1264 67.335 54.4274 65.9479 51.2052 64.5251C49.5053 63.7745 49.0033 62.7128 48.4239 61.4875C47.905 60.3901 47.3241 59.1614 45.765 57.9073C44.277 56.7078 43.5171 56.3553 42.9827 56.1075ZM10.6068 57.4345C5.97599 55.5753 5.35726 54.7681 5.6209 52.8311C5.71375 52.186 5.40167 51.3019 5.02724 50.2413C4.43017 48.5501 3.67458 46.4098 4.14965 44.073C4.39747 42.8435 4.45671 41.6891 4.50909 40.6683C4.6187 38.5321 4.69829 36.9811 6.41303 36.5523C7.42138 36.3048 8.26997 36.9248 9.32107 37.6927C10.911 38.8542 12.9642 40.3543 16.7345 39.7029C20.5715 39.0328 21.8299 39.7508 23.7423 40.8419C24.9526 41.5324 26.4247 42.3723 28.978 43.1045C35.5601 44.9996 37.3177 46.4704 37.9633 52.4248C38.2567 55.1557 36.655 54.4874 34.3779 53.5375C31.6903 52.4161 28.0618 50.9023 25.4986 54.1225C24.3656 55.5447 23.3244 55.6591 22.3648 55.7646C21.3801 55.8728 20.4814 55.9716 19.6579 57.4643C18.0931 60.3056 16.6722 60.4521 15.6788 60.5545L15.6785 60.5546L15.6779 60.5546C15.637 60.5589 15.5968 60.563 15.5574 60.5673C15.1876 60.6096 15.05 60.4444 14.783 60.1241C14.3334 59.5846 13.5168 58.6048 10.6068 57.4345ZM27.3703 82.992C27.3703 82.992 24.5247 82.3523 27.2866 78.335C27.416 78.146 27.544 77.9594 27.6703 77.7754L27.6733 77.771C30.2299 74.0449 32.0971 71.3237 30.9752 69.3077C30.2385 67.9665 28.4752 67.6592 26.6962 67.3491C25.66 67.1685 24.6185 66.9869 23.7714 66.5997C23.2632 66.3674 22.7941 66.1998 22.3681 66.0475L22.368 66.0475C20.8645 65.5103 19.898 65.165 19.6464 62.8452C19.3785 60.3744 22.1616 58.9989 24.3259 57.9292C24.7694 57.71 25.187 57.5036 25.547 57.3033C25.7859 57.1721 26.0584 56.9989 26.3592 56.8077C28.7302 55.301 32.8551 52.6797 36.0807 60.7172C38.5523 66.8841 37.809 69.3218 36.99 72.008C36.6046 73.2722 36.2023 74.5913 36.1105 76.38C35.9676 79.2165 37.4867 81.4654 38.6095 83.1277C39.6946 84.7343 40.4096 85.7928 38.8964 86.304C35.8176 87.3383 31.7046 87.0154 30.1263 86.0648C29.3249 85.5791 28.6253 84.3537 28.1315 83.4888C27.6527 82.6502 27.3674 82.1504 27.3703 82.992ZM10.6019 71.6212L15.317 76.4338C15.317 76.4338 16.6035 81.2523 20.8056 79.1419C25.0203 77.0436 28.5235 72.8828 26.8735 70.6947C26.0694 69.6322 25.0523 69.6946 23.8649 69.7675C22.607 69.8447 21.158 69.9336 19.5681 68.7097C18.2768 67.712 17.36 66.172 16.4834 64.6995C15.259 62.6428 14.113 60.7178 12.1341 60.5854C8.73609 60.3642 6.2234 64.4174 10.6019 71.6212ZM39.0276 76.541C39.0524 76.6413 39.0788 76.7663 39.1099 76.9133C39.379 78.1854 39.9963 81.1047 42.8956 83.9183C43.6475 84.648 44.225 85.3007 44.7274 85.8687L44.7276 85.8689L44.7277 85.8691L44.7278 85.8691C46.3861 87.744 47.2271 88.6948 50.8287 88.4379C52.1858 88.3422 53.519 88.5513 54.7744 88.7606L54.9454 88.7891C57.9552 89.2922 60.4829 89.7147 61.7092 85.7894C63.4608 80.1638 60.7168 77.0851 56.6456 78.2389C55.7167 78.5022 54.9287 78.8479 54.2475 79.1468C51.9434 80.1579 50.8608 80.633 49.675 75.5666C49.0945 73.0723 49.0464 70.7939 49.0038 68.7773C48.9341 65.4773 48.8793 62.8787 46.5304 61.1829C45.6695 60.5645 44.9099 59.9467 44.2335 59.3967C41.9412 57.5326 40.6054 56.4464 39.5298 58.7498C38.3863 61.2144 39.6527 67.8364 40.2698 71.0633L40.2699 71.0634L40.2699 71.0637C40.4012 71.7503 40.5031 72.2832 40.5461 72.5895C40.6782 73.5076 40.1652 74.2008 39.6945 74.837C39.2702 75.4104 38.8803 75.9374 39.0276 76.541ZM37.1919 33.2402C37.1919 33.2402 34.7109 29.9644 37.2457 29.3307C38.537 29.0138 39.4517 29.1512 40.205 29.2887L40.3352 29.3125C40.999 29.4347 41.5467 29.5355 42.1419 29.2828L42.2198 29.2495C43.5111 28.6971 45.2697 27.9448 45.6212 25.3549C45.7271 24.6019 45.7632 24.0586 45.7946 23.5859C45.8733 22.4035 45.9225 21.6625 46.9604 19.1854C47.5036 17.8994 47.5896 16.7532 47.6624 15.7821C47.786 14.135 47.8718 12.9919 50.087 12.5256C51.3179 12.269 52.1789 11.2465 52.9049 10.3844C54.2592 8.77608 55.1434 7.72611 57.0816 13.2489C57.8963 15.5657 58.6383 17.0884 59.1684 18.176C59.7342 19.3371 60.0585 20.0025 59.9716 20.609C59.8551 21.4229 58.9981 22.1309 56.9909 23.7889L56.9908 23.789C56.7648 23.9757 56.5243 24.1744 56.2686 24.3866C50.4696 29.2111 48.7299 31.1659 51.3544 35.2012C53.9728 39.2366 55.0848 43.5467 51.5457 40.8505C49.8691 39.5761 49.2229 38.3888 48.6823 37.3956C48.0817 36.2923 47.6115 35.4284 46.0038 34.9502C42.9549 34.0355 37.0544 32.4869 37.1919 33.2402ZM52.5344 69.7042L52.5345 69.7042L52.5346 69.704C52.8257 69.2244 53.0478 68.8585 53.0706 68.698C53.0706 68.698 59.3717 67.371 61.4223 66.6715C63.4669 65.9781 63.0782 61.7693 62.5163 57.0465C61.9424 52.3177 62.7554 49.986 63.5445 49.6034C64.3337 49.2268 67.1853 51.5763 68.7157 58.1464C69.6229 62.0293 68.5459 62.9922 67.4451 63.9763C66.6816 64.6589 65.9066 65.3517 65.7744 67.0361C65.7097 67.8606 65.6219 68.495 65.5526 68.9965C65.4392 69.8157 65.375 70.28 65.5406 70.6379C65.7573 71.106 66.3672 71.3921 67.7747 72.0524L67.7748 72.0525C67.9186 72.1199 68.0707 72.1913 68.2315 72.2671C71.2415 73.6838 72.1691 72.3469 73.7175 70.1156L73.7176 70.1154L73.7178 70.1151C74.0576 69.6254 74.4273 69.0927 74.8554 68.5365C75.8243 67.2819 76.5105 66.0292 77.1678 64.8294C78.1328 63.0678 79.0353 61.4202 80.6783 60.0476C83.4462 57.7459 84.3609 63.4909 84.0022 66.1333C83.7809 67.7076 82.0609 70.0366 80.2922 72.4316C79.099 74.0473 77.8837 75.693 77.0913 77.1573C75.899 79.3613 74.5385 80.1984 73.023 81.1307C72.0311 81.741 70.9727 82.3922 69.8516 83.4943C67.6993 85.6148 66.78 84.9332 65.7545 84.173C65.4327 83.9344 65.1004 83.688 64.7163 83.5181C63.5727 83.0098 63.5995 82.0514 63.6336 80.83C63.6476 80.3274 63.6629 79.7804 63.5984 79.2018C63.3832 77.217 62.8032 76.159 59.3 74.9454C57.4396 74.2939 56.6277 74.547 55.7446 74.8224L55.6951 74.8378C54.9298 75.0709 54.0869 75.3041 52.4549 74.9693C49.6847 74.3986 51.5245 71.3678 52.5344 69.7042ZM58.056 39.7987C58.0398 39.9133 57.9862 40.0727 57.922 40.2637C57.5841 41.2686 56.9524 43.1477 59.9212 43.9715C60.7408 44.1976 61.5603 44.5159 62.3459 44.8211C64.9471 45.8315 67.1761 46.6973 67.8005 43.5888C68.1448 41.8524 68.0298 40.5033 67.9153 39.159C67.7633 37.3746 67.612 35.5985 68.5359 32.9357C69.22 30.9716 69.2143 29.6052 69.2095 28.4583C69.2029 26.8788 69.198 25.7154 70.999 23.9802C72.8848 22.1633 74.1833 21.9765 75.2266 21.8265C75.9031 21.7292 76.4724 21.6473 77.025 21.1464C78.418 19.8671 77.9337 18.0975 74.7712 16.1904C73.5876 15.4766 72.8076 14.819 72.1551 14.2688C71.0643 13.3491 70.3298 12.7299 68.6615 12.6513C68.1137 12.6256 67.529 12.5745 66.9351 12.5225C64.6249 12.3203 62.1756 12.1059 61.2245 13.3329C60.915 13.7356 60.7245 13.8735 60.6256 13.945C60.579 13.9787 60.5528 13.9977 60.544 14.0228C60.5328 14.055 60.5507 14.0974 60.5914 14.1943C60.7101 14.4761 61.0229 15.2192 61.3799 17.5177C61.4653 18.067 61.5505 18.5748 61.6296 19.0462L61.6296 19.0464C62.2702 22.8644 62.5102 24.2954 59.2217 26.0248C58.0408 26.643 56.9285 26.9456 55.9839 27.2026C53.9781 27.7484 52.7285 28.0884 53.1837 30.8074C53.7242 34.0408 55.0322 35.147 55.7365 35.7427C55.9047 35.8849 56.0384 35.998 56.1191 36.104C56.5316 36.654 58.056 39.7987 58.056 39.7987ZM70.6824 68.6917L68.2074 67.1254C68.2074 67.1254 70.0726 62.4921 70.515 61.0872C70.9455 59.6764 71.4895 57.5542 71.5493 55.3662C71.6073 53.2291 71.4116 52.9142 70.4852 51.4239C70.458 51.38 70.43 51.3351 70.4015 51.2891C69.8328 50.3764 69.4988 50.0495 69.1255 49.6842C68.8434 49.4081 68.5389 49.1101 68.0938 48.5209C67.4288 47.6395 67.6764 47.4981 68.1769 47.2124C68.4504 47.0563 68.7993 46.8571 69.1161 46.4706C69.306 46.2333 69.5528 46.0716 69.8207 45.8962C70.8015 45.2539 72.0655 44.4263 71.8542 39.0217C71.8542 39.0217 70.4074 37.1025 70.0607 36.0743C69.8516 35.4682 70.153 34.9315 70.6673 34.0157C71.0206 33.3867 71.4742 32.5789 71.9319 31.4469C72.7336 29.4426 73.2991 29.1881 73.9601 28.8907C74.2159 28.7756 74.4859 28.654 74.7895 28.4222C74.9873 28.272 75.2128 28.0938 75.4571 27.9008C76.564 27.0263 78.0556 25.8479 79.0938 25.5884C80.0429 25.3556 80.5126 25.6022 81.0777 25.8989C81.2673 25.9984 81.4676 26.1035 81.7003 26.1982C82.4575 26.4981 83.2752 27.643 83.8843 28.4958C84.0159 28.68 84.1377 28.8506 84.2471 28.9961C84.8688 29.8151 86.5607 33.4798 87.296 35.2852C87.9006 36.7993 88.2798 41.187 88.4508 43.166C88.4843 43.5547 88.5099 43.8504 88.5276 44.0133C88.6352 45.0057 89.1732 51.6896 89.2569 52.9211C89.2895 53.5919 88.657 54.3885 87.9545 55.2734C87.3672 56.0132 86.7309 56.8147 86.3933 57.6559C85.6461 59.5091 83.8167 56.8128 83.8167 56.8128C83.8167 56.8128 79.6379 55.2586 78.9145 55.163C78.1971 55.0554 76.1824 58.9412 76.0569 59.8977C76.0081 60.2546 75.6873 60.8754 75.3168 61.592C74.6883 62.8081 73.917 64.3002 74.09 65.2481C74.371 66.7546 70.6824 68.6917 70.6824 68.6917Z" fill="#363636"/>
</svg>
