<svg width="211" height="235" viewBox="0 0 211 235" fill="none" xmlns="http://www.w3.org/2000/svg">
<path d="M124.368 186.235L86.7204 186.43L86.6881 176.306L124.336 176.112L124.368 186.235Z" fill="url(#paint0_linear_21_418121)"/>
<path d="M70.9824 143.403C70.9824 143.403 52.1077 159.156 52.1487 173.153C52.1929 188.256 55.3241 203.759 63.807 222.04C68.3337 231.795 68.1175 217.394 68.5352 208.384C69.2667 192.61 73.6224 188.701 83.5874 182.652C83.5874 182.652 79.0133 169.765 70.9824 143.403Z" fill="url(#paint1_linear_21_418121)"/>
<path opacity="0.33" d="M70.9823 143.403C70.9823 143.403 52.1077 159.156 52.1487 173.152C52.1929 188.256 55.3241 203.759 63.807 222.04C64.6557 223.869 65.3379 224.849 65.8883 225.174C65.8883 225.174 56.0319 201.156 55.7441 185.014C55.4564 168.872 57.7489 160.515 70.9823 143.403Z" fill="white"/>
<path d="M140.04 143.047C140.04 143.047 159.014 158.604 159.062 172.601C159.114 187.704 156.082 203.24 147.716 221.607C143.252 231.408 143.376 217.005 142.901 207.999C142.068 192.234 137.688 188.37 127.685 182.424C127.685 182.424 132.176 169.491 140.04 143.047Z" fill="url(#paint2_linear_21_418121)"/>
<path d="M129.264 25.4937C113.245 4.33687 105.066 3.62943 105.066 3.62943C105.066 3.62943 96.8915 4.42159 81.0075 25.7426C64.2306 48.2622 63.833 72.4756 63.7372 89.1337C63.6131 110.686 70.6271 153.215 83.5878 182.652L105.636 182.427L127.684 182.424C140.457 152.854 147.199 110.254 146.938 88.7043C146.736 72.048 146.184 47.8399 129.264 25.4937Z" fill="url(#paint3_linear_21_418121)"/>
<path d="M89.1802 182.595L105.636 182.427L127.684 182.424C140.457 152.854 147.199 110.254 146.938 88.7042C146.736 72.0475 146.184 47.8389 129.264 25.4936C113.245 4.33677 105.066 3.62933 105.066 3.62933" fill="url(#paint4_linear_21_418121)"/>
<path opacity="0.09" d="M86.7081 182.62L124.443 182.425" stroke="black" stroke-width="1.8919" stroke-miterlimit="10"/>
<path d="M83.5879 182.652L105.636 182.427L127.684 182.424C130.266 176.448 132.597 169.935 134.677 163.175L76.4722 163.475C78.5965 170.213 80.9688 176.702 83.5879 182.652Z" fill="url(#paint5_linear_21_418121)"/>
<path d="M106.717 147.53L127.684 182.424L124.12 183.136L124.368 186.235L109.749 186.311L106.717 147.53Z" fill="url(#paint6_linear_21_418121)"/>
<path d="M69.7328 46.6793L140.672 46.3134" stroke="black" stroke-width="1.8919" stroke-miterlimit="10"/>
<path d="M105.066 3.62941C105.066 3.62941 96.8915 4.42158 81.0076 25.7426C75.8611 32.6514 72.2607 39.7192 69.7328 46.6792L140.673 46.3134C138.1 39.3794 134.455 32.3491 129.264 25.4937C113.246 4.3373 105.066 3.62941 105.066 3.62941Z" fill="url(#paint7_linear_21_418121)"/>
<path opacity="0.09" d="M76.4672 163.478L134.677 163.176" stroke="black" stroke-width="1.8919" stroke-miterlimit="10"/>
<path d="M105.522 146.668C105.522 146.668 101.358 145.801 101.457 176.451C101.554 207.102 103.307 234.858 105.803 234.845C108.299 234.832 109.874 207.06 109.777 176.409C109.679 145.758 105.522 146.668 105.522 146.668Z" fill="url(#paint8_linear_21_418121)"/>
<path opacity="0.33" d="M105.522 146.668C105.522 146.668 101.358 145.801 101.457 176.451C101.554 207.102 103.307 234.858 105.803 234.845C105.803 234.845 103.874 224.436 103.104 200.759C102.334 177.082 102.131 150.589 105.522 146.668Z" fill="white"/>
<path d="M133.437 101.367C133.374 86.517 120.883 74.529 105.537 74.5908C90.1914 74.6522 77.8039 86.7403 77.8669 101.591C77.9307 116.441 90.4222 128.429 105.768 128.367C121.113 128.305 133.501 116.217 133.437 101.367Z" fill="url(#paint9_linear_21_418121)"/>
<path d="M132.544 100.942C132.481 86.1737 120.059 74.2528 104.799 74.3141C89.5401 74.3751 77.2206 86.3957 77.2835 101.163C77.3469 115.93 89.7691 127.851 105.028 127.791C120.288 127.729 132.607 115.708 132.544 100.942Z" fill="#D4D4D4"/>
<path d="M132.685 100.942C132.622 86.3557 120.353 74.5805 105.281 74.6414C90.2083 74.7014 78.0406 86.5751 78.1027 101.161C78.1651 115.747 90.4345 127.521 105.507 127.461C120.579 127.401 132.747 115.528 132.685 100.942Z" fill="url(#paint10_linear_21_418121)"/>
<path d="M104.892 121.797C93.1324 121.845 83.5245 112.624 83.4757 101.244C83.4269 89.8632 92.9555 80.5655 104.715 80.5183C116.475 80.4711 126.083 89.692 126.132 101.072C126.181 112.453 116.652 121.75 104.892 121.797Z" fill="url(#paint11_linear_21_418121)"/>
<path d="M81.725 102.46C81.3729 101.938 80.651 101.791 80.1124 102.131C79.5734 102.472 79.4215 103.171 79.7731 103.692C80.1252 104.213 80.8471 104.36 81.3857 104.02C81.9252 103.68 82.0766 102.981 81.725 102.46Z" fill="#A3A3A3"/>
<path d="M83.3722 109.597C83.0201 109.076 82.2982 108.929 81.7596 109.269C81.2206 109.61 81.0687 110.308 81.4203 110.829C81.7724 111.351 82.4943 111.498 83.0329 111.158C83.5719 110.818 83.7242 110.119 83.3722 109.597Z" fill="#A3A3A3"/>
<path d="M81.8559 96.3017C81.5038 95.7801 80.7819 95.6331 80.2433 95.9734C79.7043 96.3141 79.5524 97.0127 79.904 97.5339C80.2561 98.0555 80.978 98.2025 81.5166 97.8622C82.0556 97.5224 82.2075 96.8238 81.8559 96.3017Z" fill="#A3A3A3"/>
<path d="M92.4105 119.774C91.7693 119.717 91.2024 120.174 91.1441 120.795C91.0857 121.415 91.5577 121.964 92.1989 122.02C92.8401 122.077 93.4069 121.62 93.4653 120.999C93.5237 120.379 93.0517 119.83 92.4105 119.774Z" fill="#A3A3A3"/>
<path d="M99.2183 122.951C98.5771 122.895 98.0102 123.351 97.9519 123.972C97.8935 124.592 98.3655 125.141 99.0067 125.197C99.6479 125.254 100.215 124.797 100.273 124.177C100.331 123.556 99.8595 123.008 99.2183 122.951Z" fill="#A3A3A3"/>
<path d="M86.7948 114.987C86.1536 114.931 85.5868 115.388 85.5284 116.008C85.47 116.629 85.942 117.177 86.5832 117.234C87.2244 117.29 87.7913 116.833 87.8497 116.213C87.908 115.592 87.4356 115.043 86.7948 114.987Z" fill="#A3A3A3"/>
<path d="M112.796 122.75C112.356 123.205 112.38 123.919 112.849 124.344C113.318 124.77 114.056 124.747 114.496 124.293C114.936 123.839 114.913 123.125 114.443 122.699C113.974 122.274 113.236 122.296 112.796 122.75Z" fill="#A3A3A3"/>
<path d="M119.572 119.51C119.131 119.964 119.155 120.678 119.624 121.104C120.094 121.53 120.831 121.507 121.272 121.053C121.712 120.599 121.688 119.885 121.219 119.459C120.749 119.033 120.012 119.056 119.572 119.51Z" fill="#A3A3A3"/>
<path d="M105.441 124.092C105.001 124.547 105.025 125.261 105.494 125.687C105.964 126.112 106.702 126.089 107.142 125.635C107.582 125.181 107.558 124.467 107.089 124.041C106.619 123.615 105.882 123.638 105.441 124.092Z" fill="#A3A3A3"/>
<path d="M127.76 108.826C127.855 109.442 128.448 109.867 129.085 109.775C129.721 109.683 130.16 109.108 130.065 108.493C129.97 107.877 129.376 107.452 128.74 107.544C128.104 107.636 127.664 108.21 127.76 108.826Z" fill="#A3A3A3"/>
<path d="M129.118 101.96C129.213 102.576 129.807 103 130.443 102.908C131.08 102.816 131.518 102.242 131.423 101.626C131.328 101.01 130.735 100.585 130.098 100.678C129.462 100.77 129.023 101.343 129.118 101.96Z" fill="#A3A3A3"/>
<path d="M124.171 115.014C124.266 115.631 124.86 116.055 125.496 115.963C126.133 115.871 126.571 115.296 126.476 114.681C126.381 114.065 125.787 113.64 125.151 113.732C124.514 113.825 124.076 114.399 124.171 115.014Z" fill="#A3A3A3"/>
<path d="M125.26 89.7379C125.811 90.0601 126.527 89.8884 126.86 89.3558C127.192 88.8227 127.015 88.1293 126.464 87.8072C125.913 87.485 125.197 87.6567 124.864 88.1894C124.532 88.7229 124.709 89.4158 125.26 89.7379Z" fill="#A3A3A3"/>
<path d="M120.92 84.4647C121.47 84.7868 122.187 84.6152 122.519 84.0825C122.852 83.5494 122.675 82.8561 122.124 82.5343C121.574 82.2122 120.857 82.3839 120.525 82.9165C120.192 83.4496 120.369 84.1425 120.92 84.4647Z" fill="#A3A3A3"/>
<path d="M128.477 96.0973C129.028 96.4195 129.744 96.2478 130.076 95.7151C130.409 95.182 130.232 94.4887 129.681 94.1666C129.13 93.8444 128.414 94.0161 128.081 94.5487C127.749 95.0823 127.926 95.7756 128.477 96.0973Z" fill="#A3A3A3"/>
<path d="M109.056 78.4777C109.657 78.2553 109.958 77.603 109.728 77.0214C109.498 76.4397 108.824 76.1485 108.223 76.3709C107.622 76.5933 107.321 77.2456 107.551 77.8272C107.781 78.4093 108.455 78.7002 109.056 78.4777Z" fill="#A3A3A3"/>
<path d="M101.595 78.4985C102.196 78.2761 102.497 77.6238 102.267 77.0422C102.037 76.4605 101.363 76.1692 100.762 76.3916C100.161 76.6141 99.8595 77.2659 100.09 77.848C100.32 78.4301 100.994 78.7209 101.595 78.4985Z" fill="#A3A3A3"/>
<path d="M115.837 80.8061C116.438 80.5836 116.74 79.9318 116.51 79.3497C116.28 78.768 115.606 78.4768 115.005 78.6992C114.404 78.9216 114.103 79.5739 114.332 80.1555C114.562 80.7372 115.236 81.0285 115.837 80.8061Z" fill="#A3A3A3"/>
<path d="M88.8789 84.8831C89.0714 84.2891 88.7298 83.6558 88.116 83.4695C87.5022 83.2833 86.8477 83.6139 86.6553 84.2079C86.4628 84.8019 86.8044 85.4352 87.4182 85.6214C88.0325 85.8081 88.686 85.4775 88.8789 84.8831Z" fill="#A3A3A3"/>
<path d="M84.6624 90.6942C84.8548 90.1002 84.5133 89.4669 83.8994 89.2807C83.2856 89.0945 82.6312 89.425 82.4387 90.019C82.2463 90.613 82.5879 91.2463 83.2017 91.4326C83.816 91.6192 84.4699 91.2891 84.6624 90.6942Z" fill="#A3A3A3"/>
<path d="M94.9657 80.4518C95.1581 79.8578 94.8166 79.2245 94.2027 79.0383C93.5885 78.8516 92.9345 79.1826 92.742 79.7766C92.5496 80.3706 92.8912 81.0039 93.505 81.1902C94.1193 81.3768 94.7737 81.0463 94.9657 80.4518Z" fill="#A3A3A3"/>
<path d="M81.3784 102.459C81.0263 101.938 80.3044 101.791 79.7658 102.131C79.2268 102.472 79.0749 103.17 79.4265 103.692C79.7786 104.213 80.5005 104.36 81.0391 104.02C81.5782 103.679 81.73 102.981 81.3784 102.459Z" fill="#D4D4D4"/>
<path d="M83.0256 109.597C82.6735 109.076 81.9516 108.929 81.413 109.269C80.874 109.61 80.7221 110.308 81.0738 110.83C81.4258 111.351 82.1477 111.498 82.6863 111.158C83.2254 110.818 83.3777 110.119 83.0256 109.597Z" fill="#D4D4D4"/>
<path d="M81.5093 96.3017C81.1577 95.7805 80.4353 95.6331 79.8967 95.9733C79.3577 96.314 79.2058 97.0126 79.5575 97.5338C79.9095 98.0554 80.6314 98.2024 81.17 97.8621C81.7091 97.5223 81.8609 96.8237 81.5093 96.3017Z" fill="#D4D4D4"/>
<path d="M92.0639 119.774C91.4227 119.717 90.8559 120.174 90.7975 120.795C90.7391 121.415 91.2111 121.964 91.8523 122.02C92.4935 122.077 93.0604 121.62 93.1188 120.999C93.1776 120.379 92.7051 119.83 92.0639 119.774Z" fill="#D4D4D4"/>
<path d="M98.8718 122.951C98.2306 122.895 97.6637 123.352 97.6054 123.972C97.547 124.593 98.019 125.141 98.6602 125.198C99.3014 125.254 99.8682 124.797 99.9266 124.177C99.985 123.556 99.513 123.008 98.8718 122.951Z" fill="#D4D4D4"/>
<path d="M86.4482 114.987C85.807 114.931 85.2402 115.387 85.1818 116.008C85.1234 116.628 85.5954 117.177 86.2366 117.234C86.8778 117.29 87.4447 116.833 87.503 116.213C87.5614 115.592 87.0894 115.044 86.4482 114.987Z" fill="#D4D4D4"/>
<path d="M112.449 122.751C112.009 123.205 112.033 123.918 112.502 124.345C112.972 124.77 113.71 124.748 114.15 124.293C114.59 123.839 114.566 123.125 114.097 122.699C113.627 122.274 112.89 122.296 112.449 122.751Z" fill="#D4D4D4"/>
<path d="M119.225 119.51C118.785 119.964 118.809 120.678 119.278 121.104C119.747 121.53 120.485 121.507 120.925 121.053C121.365 120.599 121.342 119.885 120.872 119.459C120.403 119.033 119.665 119.056 119.225 119.51Z" fill="#D4D4D4"/>
<path d="M105.095 124.093C104.655 124.547 104.679 125.261 105.148 125.687C105.618 126.113 106.355 126.09 106.795 125.636C107.236 125.182 107.212 124.468 106.743 124.042C106.273 123.616 105.535 123.638 105.095 124.093Z" fill="#D4D4D4"/>
<path d="M127.414 108.826C127.508 109.443 128.102 109.867 128.738 109.775C129.375 109.683 129.814 109.108 129.718 108.493C129.624 107.877 129.03 107.452 128.394 107.544C127.757 107.636 127.318 108.21 127.414 108.826Z" fill="#D4D4D4"/>
<path d="M128.772 101.959C128.867 102.576 129.46 103 130.097 102.908C130.733 102.816 131.172 102.241 131.077 101.626C130.982 101.01 130.388 100.585 129.752 100.677C129.116 100.77 128.677 101.343 128.772 101.959Z" fill="#D4D4D4"/>
<path d="M123.824 115.015C123.919 115.631 124.513 116.056 125.149 115.963C125.786 115.872 126.224 115.297 126.129 114.681C126.034 114.065 125.44 113.641 124.804 113.733C124.168 113.824 123.729 114.398 123.824 115.015Z" fill="#D4D4D4"/>
<path d="M124.913 89.7381C125.464 90.0602 126.18 89.8886 126.513 89.3559C126.846 88.8228 126.668 88.1295 126.118 87.8073C125.567 87.4851 124.85 87.6568 124.518 88.1895C124.185 88.723 124.362 89.4159 124.913 89.7381Z" fill="#D4D4D4"/>
<path d="M120.573 84.4649C121.124 84.787 121.84 84.6154 122.173 84.0827C122.506 83.5496 122.328 82.8563 121.778 82.5346C121.227 82.2124 120.51 82.3841 120.178 82.9167C119.846 83.4494 120.022 84.1427 120.573 84.4649Z" fill="#D4D4D4"/>
<path d="M128.13 96.0974C128.681 96.4196 129.397 96.2479 129.73 95.7153C130.063 95.1821 129.885 94.4888 129.334 94.1667C128.784 93.8445 128.067 94.0162 127.735 94.5488C127.402 95.0824 127.58 95.7757 128.13 96.0974Z" fill="#D4D4D4"/>
<path d="M108.71 78.4777C109.311 78.2553 109.612 77.603 109.382 77.0213C109.152 76.4397 108.478 76.1484 107.877 76.3708C107.276 76.5932 106.975 77.2455 107.205 77.8272C107.435 78.4093 108.108 78.7001 108.71 78.4777Z" fill="#D4D4D4"/>
<path d="M101.248 78.4986C101.849 78.2762 102.151 77.6244 101.92 77.0423C101.691 76.4606 101.017 76.1693 100.415 76.3918C99.8144 76.6142 99.513 77.266 99.7433 77.8481C99.9736 78.4302 100.647 78.721 101.248 78.4986Z" fill="#D4D4D4"/>
<path d="M115.491 80.8062C116.092 80.5838 116.393 79.9315 116.163 79.3499C115.933 78.7682 115.26 78.4765 114.658 78.6994C114.057 78.9218 113.756 79.5741 113.986 80.1557C114.216 80.7374 114.89 81.0287 115.491 80.8062Z" fill="#D4D4D4"/>
<path d="M88.5323 84.883C88.7248 84.289 88.3832 83.6557 87.7694 83.4695C87.1555 83.2832 86.5011 83.6138 86.3087 84.2078C86.1162 84.8018 86.4578 85.4351 87.0716 85.6213C87.6859 85.808 88.3394 85.4775 88.5323 84.883Z" fill="#D4D4D4"/>
<path d="M84.3163 90.6949C84.5087 90.1009 84.1671 89.4676 83.5533 89.2814C82.9395 89.0951 82.2851 89.4257 82.0926 90.0197C81.9002 90.6137 82.2417 91.247 82.8556 91.4332C83.4694 91.6195 84.1234 91.2894 84.3163 90.6949Z" fill="#D4D4D4"/>
<path d="M94.6191 80.4519C94.8116 79.8579 94.47 79.2246 93.8562 79.0384C93.2423 78.8521 92.5879 79.1827 92.3955 79.7767C92.203 80.3707 92.5446 81.004 93.1584 81.1903C93.7727 81.3769 94.4267 81.046 94.6191 80.4519Z" fill="#D4D4D4"/>
<path d="M80.2847 102.025V104.13H80.5175V102.025H80.2847Z" fill="#B9B9B9"/>
<path d="M81.9324 109.163V111.268H82.1652V109.163H81.9324Z" fill="#B9B9B9"/>
<path d="M80.4161 95.8673V97.9724H80.6489V95.8673H80.4161Z" fill="#B9B9B9"/>
<path d="M91.8406 119.846V121.951H92.0734V119.846H91.8406Z" fill="#B9B9B9"/>
<path d="M98.6449 123.021V125.126H98.8777V123.021H98.6449Z" fill="#B9B9B9"/>
<path d="M86.2244 115.059V117.164H86.4573V115.059H86.2244Z" fill="#B9B9B9"/>
<path d="M113.182 122.471V124.576H113.415V122.471H113.182Z" fill="#B9B9B9"/>
<path d="M119.957 119.23V121.335H120.19V119.23H119.957Z" fill="#B9B9B9"/>
<path d="M105.827 123.813V125.918H106.06V123.813H105.827Z" fill="#B9B9B9"/>
<path d="M128.448 107.609V109.714H128.681V107.609H128.448Z" fill="#B9B9B9"/>
<path d="M129.802 100.739V102.844H130.035V100.739H129.802Z" fill="#B9B9B9"/>
<path d="M124.859 113.797V115.902H125.092V113.797H124.859Z" fill="#B9B9B9"/>
<path d="M125.398 87.7221V89.8272H125.631V87.7221H125.398Z" fill="#B9B9B9"/>
<path d="M121.058 82.4486V84.5538H121.291V82.4486H121.058Z" fill="#B9B9B9"/>
<path d="M128.618 94.0839V96.1891H128.851V94.0839H128.618Z" fill="#B9B9B9"/>
<path d="M108.176 76.3736V78.4787H108.409V76.3736H108.176Z" fill="#B9B9B9"/>
<path d="M100.715 76.3945V78.4996H100.947V76.3945H100.715Z" fill="#B9B9B9"/>
<path d="M114.957 78.7021V80.8073H115.19V78.7021H114.957Z" fill="#B9B9B9"/>
<path d="M87.3028 83.4955V85.6006H87.5356V83.4955H87.3028Z" fill="#B9B9B9"/>
<path d="M83.0862 89.3062V91.4113H83.3191V89.3062H83.0862Z" fill="#B9B9B9"/>
<path d="M93.3899 79.0638V81.1689H93.6227V79.0638H93.3899Z" fill="#B9B9B9"/>
<path opacity="0.33" d="M88.1378 182.59L88.1027 186.415L86.7204 186.43L86.7081 182.62L88.1378 182.59Z" fill="white"/>
<path d="M127.684 182.424L135.047 186.476C135.047 186.476 142.885 164.141 140.039 143.047C140.039 143.047 133.19 169.537 127.684 182.424Z" fill="url(#paint12_linear_21_418121)"/>
<path opacity="0.33" d="M143.856 211.628C143.953 202.524 141.238 196.446 140.69 195.313C140.8 195.556 140.994 196.055 141.231 196.959C142.118 199.869 142.659 203.432 142.901 207.999C143.208 213.82 143.266 221.886 144.474 224.224C144.746 224.705 145.05 224.89 145.38 224.874C145.382 224.873 145.384 224.874 145.386 224.873C145.377 224.86 143.748 221.728 143.856 211.628Z" fill="white"/>
<defs>
<linearGradient id="paint0_linear_21_418121" x1="145.997" y1="190.704" x2="74.6897" y2="172.955" gradientUnits="userSpaceOnUse">
<stop stop-color="#767B7F"/>
<stop offset="1" stop-color="#A3A3A3"/>
</linearGradient>
<linearGradient id="paint1_linear_21_418121" x1="57.6504" y1="183.643" x2="150.908" y2="190.067" gradientUnits="userSpaceOnUse">
<stop offset="0.0036" stop-color="#323234"/>
<stop offset="1" stop-color="#1D1E21"/>
</linearGradient>
<linearGradient id="paint2_linear_21_418121" x1="165.484" y1="198.807" x2="82.725" y2="141.609" gradientUnits="userSpaceOnUse">
<stop offset="0.0036" stop-color="#16171B"/>
<stop offset="1" stop-color="#5C5A5B"/>
</linearGradient>
<linearGradient id="paint3_linear_21_418121" x1="73.1725" y1="84.769" x2="180.418" y2="129.662" gradientUnits="userSpaceOnUse">
<stop offset="0.0036" stop-color="#EEF4FA"/>
<stop offset="1" stop-color="#CDDEED"/>
</linearGradient>
<linearGradient id="paint4_linear_21_418121" x1="86.0039" y1="88.6743" x2="176.987" y2="126.76" gradientUnits="userSpaceOnUse">
<stop offset="0.0036" stop-color="#EEF4FA"/>
<stop offset="1" stop-color="#CDDEED"/>
</linearGradient>
<linearGradient id="paint5_linear_21_418121" x1="65.7471" y1="168.519" x2="130.633" y2="175.537" gradientUnits="userSpaceOnUse">
<stop stop-color="#C7C7C7"/>
<stop offset="1" stop-color="#A3A3A3"/>
</linearGradient>
<linearGradient id="paint6_linear_21_418121" x1="104.462" y1="165.059" x2="128.415" y2="177.688" gradientUnits="userSpaceOnUse">
<stop stop-color="#1D262D"/>
<stop offset="1" stop-color="#1D262D" stop-opacity="0"/>
</linearGradient>
<linearGradient id="paint7_linear_21_418121" x1="91.7354" y1="28.2814" x2="199.962" y2="15.9951" gradientUnits="userSpaceOnUse">
<stop offset="0.0036" stop-color="#323234"/>
<stop offset="1" stop-color="#1C1D20"/>
</linearGradient>
<linearGradient id="paint8_linear_21_418121" x1="83.1858" y1="186.9" x2="165.842" y2="202.025" gradientUnits="userSpaceOnUse">
<stop offset="0.0036" stop-color="#333335"/>
<stop offset="1" stop-color="#1C1D20"/>
</linearGradient>
<linearGradient id="paint9_linear_21_418121" x1="117.317" y1="105.469" x2="155.101" y2="119.273" gradientUnits="userSpaceOnUse">
<stop stop-color="#1D262D"/>
<stop offset="0.6767" stop-color="#1D262D" stop-opacity="0.3233"/>
<stop offset="1" stop-color="#1D262D" stop-opacity="0"/>
</linearGradient>
<linearGradient id="paint10_linear_21_418121" x1="75.5092" y1="89.4521" x2="155.473" y2="122.595" gradientUnits="userSpaceOnUse">
<stop stop-color="#C7C7C7"/>
<stop offset="1" stop-color="#A3A3A3"/>
</linearGradient>
<linearGradient id="paint11_linear_21_418121" x1="89.7297" y1="86.5704" x2="118.889" y2="116.703" gradientUnits="userSpaceOnUse">
<stop stop-color="#323234"/>
<stop offset="1" stop-color="#1A1B1E"/>
</linearGradient>
<linearGradient id="paint12_linear_21_418121" x1="122.472" y1="159.179" x2="144.37" y2="167.841" gradientUnits="userSpaceOnUse">
<stop stop-color="#1D262D"/>
<stop offset="1" stop-color="#1D262D" stop-opacity="0"/>
</linearGradient>
</defs>
</svg>
