<svg width="167" height="141" viewBox="0 0 167 141" fill="none" xmlns="http://www.w3.org/2000/svg">
<path d="M53.4015 22.6248C53.4015 26.7731 50.0409 30.1353 45.8911 30.1353C41.7444 30.1353 38.3822 26.7731 38.3822 22.6248C38.3822 18.4781 41.7444 15.1159 45.8911 15.1159C50.0409 15.1159 53.4015 18.4781 53.4015 22.6248Z" fill="#FAE033"/>
<path d="M45.1065 19.1203C45.1065 19.6732 44.6571 20.1211 44.1042 20.1211C43.5528 20.1211 43.1034 19.6732 43.1034 19.1203C43.1034 18.5674 43.5528 18.1196 44.1042 18.1196C44.6571 18.1196 45.1065 18.5674 45.1065 19.1203Z" fill="#CDB838"/>
<path d="M43.1235 24.0206C43.1235 24.7634 42.5242 25.3657 41.7783 25.3657C41.037 25.3657 40.4331 24.7634 40.4331 24.0206C40.4331 23.2762 41.037 22.6738 41.7783 22.6738C42.5242 22.6738 43.1235 23.2762 43.1235 24.0206Z" fill="#CDB838"/>
<path d="M51.6007 24.1273C51.6007 24.7127 51.125 25.1868 50.5412 25.1868C49.9543 25.1868 49.4802 24.7127 49.4802 24.1273C49.4802 23.542 49.9543 23.0679 50.5412 23.0679C51.125 23.0679 51.6007 23.542 51.6007 24.1273Z" fill="#CDB838"/>
<path d="M48.0224 27.559C48.0224 28.1443 47.5498 28.6184 46.9645 28.6184C46.3791 28.6184 45.905 28.1443 45.905 27.559C45.905 26.9736 46.3791 26.4995 46.9645 26.4995C47.5498 26.4995 48.0224 26.9736 48.0224 27.559Z" fill="#CDB838"/>
<path d="M49.4911 19.6222C49.4911 19.9511 49.227 20.2168 48.8964 20.2168C48.5659 20.2168 48.3003 19.9511 48.3003 19.6222C48.3003 19.2917 48.5659 19.0261 48.8964 19.0261C49.227 19.0261 49.4911 19.2917 49.4911 19.6222Z" fill="#CDB838"/>
<path d="M46.3946 22.5538C46.3946 22.8843 46.1274 23.1499 45.7969 23.1499C45.4664 23.1499 45.1992 22.8843 45.1992 22.5538C45.1992 22.2248 45.4664 21.9577 45.7969 21.9577C46.1274 21.9577 46.3946 22.2248 46.3946 22.5538Z" fill="#CDB838"/>
<path d="M45.8634 30.155C43.7244 30.155 41.797 29.2562 40.4302 27.8199C40.4472 27.8245 40.4657 27.8291 40.4827 27.8338C41.8479 29.2515 43.7661 30.1349 45.8912 30.1349C47.4897 30.1349 48.9707 29.6345 50.1877 28.7851C48.9661 29.6484 47.4742 30.155 45.8634 30.155Z" fill="#131B2B"/>
<path d="M45.8912 30.1353C43.7661 30.1353 41.8479 29.2519 40.4827 27.8341C41.0695 27.9824 41.6826 28.0689 42.3159 28.0689C43.6579 28.0689 44.9197 27.7168 46.0101 27.099C45.9421 27.2396 45.9051 27.3955 45.9051 27.5592C45.9051 28.1446 46.3792 28.6187 46.9645 28.6187C47.5498 28.6187 48.0224 28.1446 48.0224 27.5592C48.0224 26.9739 47.5498 26.4997 46.9645 26.4997C46.946 26.4997 46.9275 26.5013 46.9089 26.5013C48.6835 25.1283 49.8247 22.9785 49.8247 20.5615C49.8247 18.5523 49.0325 16.7329 47.7491 15.3862C50.9815 16.2233 53.3707 19.1515 53.3707 22.6465C53.3707 25.1824 52.1136 27.4264 50.1877 28.7855C48.9707 29.6349 47.4896 30.1353 45.8912 30.1353ZM50.5413 23.0681C49.9545 23.0681 49.4804 23.5422 49.4804 24.1275C49.4804 24.7129 49.9545 25.187 50.5413 25.187C51.1251 25.187 51.6008 24.7129 51.6008 24.1275C51.6008 23.5422 51.1251 23.0681 50.5413 23.0681Z" fill="#C5B129"/>
<path d="M50.5412 25.1868C49.9543 25.1868 49.4802 24.7127 49.4802 24.1273C49.4802 23.542 49.9543 23.0679 50.5412 23.0679C51.125 23.0679 51.6007 23.542 51.6007 24.1273C51.6007 24.7127 51.125 25.1868 50.5412 25.1868Z" fill="#A1922F"/>
<path d="M46.9645 28.6184C46.3791 28.6184 45.905 28.1443 45.905 27.559C45.905 27.3953 45.9421 27.2393 46.01 27.0987C46.3251 26.9211 46.6247 26.7219 46.9089 26.501C46.9274 26.501 46.9459 26.4995 46.9645 26.4995C47.5498 26.4995 48.0224 26.9736 48.0224 27.559C48.0224 28.1443 47.5498 28.6184 46.9645 28.6184Z" fill="#A1922F"/>
</svg>
