<svg width="168" height="141" viewBox="0 0 168 141" fill="none" xmlns="http://www.w3.org/2000/svg">
<path d="M41.9554 30.3423C41.9554 34.486 38.5957 37.8481 34.4487 37.8481C30.3024 37.8481 26.9421 34.486 26.9421 30.3423C26.9421 26.1956 30.3024 22.8335 34.4487 22.8335C38.5957 22.8335 41.9554 26.1956 41.9554 30.3423Z" fill="#EAB03E"/>
<path d="M34.4198 37.8696C32.2817 37.8696 30.3554 36.9708 28.9878 35.5361C29.0065 35.5407 29.0246 35.5453 29.0432 35.55C30.4085 36.9662 32.3257 37.848 34.4486 37.848C36.1022 37.848 37.6304 37.3137 38.8701 36.4086C37.625 37.326 36.086 37.8696 34.4198 37.8696Z" fill="#131B2B"/>
<path d="M34.4486 37.8481C32.3257 37.8481 30.4085 36.9663 29.0432 35.5501C29.6302 35.6968 30.2414 35.7848 30.8753 35.7848C35.0199 35.7848 38.3814 32.4227 38.3814 28.2775C38.3814 26.2698 37.5899 24.4505 36.3056 23.1037C39.5356 23.9424 41.9257 26.869 41.9257 30.3624C41.9257 32.8427 40.724 35.042 38.8701 36.4088C37.6304 37.3138 36.1022 37.8481 34.4486 37.8481Z" fill="#B98D35"/>
<path d="M131.504 116.373C131.504 120.519 128.145 123.879 123.998 123.879C119.851 123.879 116.491 120.519 116.491 116.373C116.491 112.227 119.851 108.866 123.998 108.866C128.145 108.866 131.504 112.227 131.504 116.373Z" fill="#44B5C2"/>
<path d="M124.047 123.902C123.083 123.902 122.163 123.719 121.316 123.387C122.149 123.705 123.053 123.879 123.998 123.879C128.144 123.879 131.504 120.519 131.504 116.373C131.504 113.694 130.102 111.343 127.991 110.015C130.128 111.336 131.553 113.695 131.553 116.395C131.553 120.54 128.194 123.902 124.047 123.902Z" fill="#131B2B"/>
<path d="M123.998 123.879C123.053 123.879 122.15 123.705 121.316 123.386C120.286 122.982 119.367 122.355 118.615 121.567C119.219 121.725 119.848 121.816 120.502 121.816C124.646 121.816 128.009 118.455 128.009 114.308C128.009 112.302 127.217 110.481 125.932 109.135C126.668 109.326 127.361 109.626 127.991 110.015C130.102 111.343 131.504 113.694 131.504 116.373C131.504 120.519 128.144 123.879 123.998 123.879Z" fill="#358F9D"/>
<path d="M46.6634 115.972C46.6634 119.254 44.0035 121.915 40.721 121.915C37.4387 121.915 34.7788 119.254 34.7788 115.972C34.7788 112.691 37.4387 110.029 40.721 110.029C44.0035 110.029 46.6634 112.691 46.6634 115.972Z" fill="#FCD36D"/>
<path d="M40.776 121.932C40.1715 121.932 39.5882 121.841 39.0386 121.672C39.5719 121.83 40.1365 121.915 40.721 121.915C44.0035 121.915 46.6634 119.254 46.6634 115.972C46.6634 113.542 45.2048 111.453 43.1149 110.531C45.2318 111.439 46.7183 113.538 46.7183 115.99C46.7183 119.272 44.0585 121.932 40.776 121.932Z" fill="#131B2B"/>
<path d="M40.7211 121.915C40.1365 121.915 39.5719 121.83 39.0386 121.672C38.0503 121.369 37.172 120.815 36.4758 120.084C36.9543 120.208 37.4525 120.282 37.9708 120.282C41.2508 120.282 43.9131 117.62 43.9131 114.338C43.9131 112.749 43.2857 111.308 42.2692 110.242C42.5606 110.318 42.8429 110.415 43.1149 110.531C45.2048 111.453 46.6635 113.542 46.6635 115.972C46.6635 119.254 44.0036 121.915 40.7211 121.915Z" fill="#C8A756"/>
<path d="M57.8329 22.5187C57.8329 25.799 55.1731 28.46 51.8906 28.46C48.6082 28.46 45.9482 25.799 45.9482 22.5187C45.9482 19.2368 48.6082 16.5773 51.8906 16.5773C55.1731 16.5773 57.8329 19.2368 57.8329 22.5187Z" fill="#44B5C2"/>
<path d="M51.9457 28.4783C51.3424 28.4783 50.7602 28.3871 50.2119 28.2188C50.744 28.3763 51.3074 28.4597 51.8908 28.4597C55.1733 28.4597 57.8331 25.7987 57.8331 22.5184C57.8331 20.0937 56.3804 18.0072 54.2973 17.0837C56.4082 17.9949 57.8881 20.0891 57.8881 22.5354C57.8881 25.8173 55.2281 28.4783 51.9457 28.4783Z" fill="#131B2B"/>
<path d="M51.8909 28.46C51.3074 28.46 50.744 28.3766 50.212 28.219C49.2225 27.9163 48.3423 27.3604 47.6455 26.6299C48.124 26.7534 48.6223 26.8275 49.1399 26.8275C52.4199 26.8275 55.0823 24.1681 55.0823 20.8847C55.0823 19.2955 54.4554 17.8561 53.4389 16.7889C53.7345 16.8661 54.0217 16.965 54.2974 17.0839C56.3805 18.0075 57.8332 20.0939 57.8332 22.5187C57.8332 25.799 55.1734 28.46 51.8909 28.46Z" fill="#358F9D"/>
<path d="M69.5307 16.9957C70.9877 18.4505 70.9883 20.8134 69.5307 22.2698C68.0738 23.7262 65.7126 23.7262 64.2556 22.2698C62.7992 20.8134 62.7992 18.452 64.2556 16.9957C65.7132 15.5393 68.0745 15.5393 69.5307 16.9957Z" fill="#FCD36D"/>
<path d="M66.8926 23.377C66.8619 23.377 66.8312 23.3754 66.7998 23.3754C66.8077 23.3708 66.8154 23.3661 66.8227 23.3615C66.8463 23.3615 66.8698 23.363 66.8932 23.363C67.8477 23.363 68.8021 22.9985 69.5308 22.2696C70.1184 21.6827 70.4696 20.9476 70.583 20.1846C70.4719 20.9538 70.1209 21.6951 69.5285 22.2881C68.8009 23.0156 67.8464 23.377 66.8926 23.377Z" fill="#131B2B"/>
<path d="M66.8932 23.363C66.8697 23.363 66.8463 23.3615 66.8226 23.3615C67.0815 23.2071 67.327 23.0233 67.5502 22.8009C69.0066 21.3461 69.0072 18.9816 67.5502 17.5252C66.8456 16.8209 65.9273 16.458 65.0032 16.438C65.5859 16.0951 66.2412 15.9221 66.8969 15.9221C67.8489 15.9221 68.8009 16.2851 69.5284 17.0125C70.3928 17.8773 70.7446 19.0603 70.5829 20.1846C70.4696 20.9476 70.1184 21.6827 69.5307 22.2696C68.8021 22.9985 67.8477 23.363 66.8932 23.363Z" fill="#C8A756"/>
<path d="M35.1733 47.022C36.6289 48.4799 36.6307 50.8413 35.1733 52.2977C33.715 53.7556 31.3538 53.7556 29.898 52.2977C28.4412 50.8413 28.4412 48.4814 29.898 47.022C31.3557 45.5656 33.7169 45.5672 35.1733 47.022Z" fill="#FCD36D"/>
<path d="M32.5965 53.4048C32.5674 53.4048 32.5386 53.4048 32.5095 53.4032C32.5168 53.4002 32.524 53.3955 32.5313 53.3909C32.5325 53.3909 32.5338 53.3909 32.535 53.3909C33.4893 53.3909 34.4437 53.0264 35.1731 52.2975C36.6306 50.8411 36.6287 48.4797 35.1731 47.0218C34.7225 46.5723 34.1861 46.2619 33.6165 46.089C34.2102 46.2558 34.7707 46.5724 35.2382 47.0403C36.6952 48.4951 36.6952 50.8581 35.2382 52.3144C34.5095 53.0434 33.5526 53.4048 32.5965 53.4048Z" fill="#131B2B"/>
<path d="M32.5349 53.3911C32.5337 53.3911 32.5325 53.3911 32.5312 53.3911C32.7907 53.2367 33.0369 53.0514 33.2594 52.8274C34.7164 51.3726 34.7164 49.0097 33.2594 47.5518C32.5543 46.8475 31.6366 46.4861 30.7124 46.4645C31.2951 46.1216 31.9502 45.9502 32.6055 45.9502C32.9458 45.9502 33.2866 45.9966 33.6165 46.0892C34.1861 46.2622 34.7224 46.5726 35.1731 47.022C36.6287 48.4799 36.6305 50.8413 35.1731 52.2977C34.4437 53.0267 33.4892 53.3911 32.5349 53.3911Z" fill="#C8A756"/>
<path d="M41.3712 95.8406C42.8276 97.2969 42.8295 99.6583 41.3712 101.116C39.9138 102.573 37.5526 102.573 36.0962 101.116C34.6398 99.6583 34.6398 97.2969 36.0962 95.8406C37.5544 94.3826 39.9156 94.3842 41.3712 95.8406Z" fill="#44B5C2"/>
<path d="M38.8116 102.222C38.7808 102.222 38.7501 102.222 38.7188 102.222C38.7259 102.217 38.7331 102.212 38.7404 102.208C39.6923 102.206 40.6443 101.842 41.3713 101.116C42.8295 99.6579 42.8276 97.2966 41.3713 95.8402C40.888 95.3568 40.3047 95.034 39.6882 94.8703C40.3325 95.0263 40.9442 95.3537 41.4479 95.8572C42.9049 97.3151 42.9049 99.675 41.4479 101.134C40.7205 101.862 39.766 102.222 38.8116 102.222Z" fill="#131B2B"/>
<path d="M38.7405 102.208C39.0006 102.055 39.2461 101.87 39.4699 101.647C40.9263 100.189 40.9263 97.8281 39.4699 96.3717C38.7641 95.6659 37.8464 95.3045 36.9216 95.2814C37.5043 94.94 38.1596 94.7686 38.8154 94.7686C39.1079 94.7686 39.4016 94.8026 39.6883 94.8706C40.3048 95.0343 40.8881 95.357 41.3714 95.8404C42.8277 97.2968 42.8296 99.6582 41.3714 101.116C40.6444 101.842 39.6924 102.206 38.7405 102.208Z" fill="#358F9D"/>
<path d="M62.1108 119.099C63.5672 120.557 63.5685 122.918 62.1108 124.375C60.6534 125.832 58.2922 125.832 56.8358 124.375C55.379 122.918 55.379 120.558 56.8358 119.099C58.294 117.643 60.6546 117.644 62.1108 119.099Z" fill="#EAB03E"/>
<path d="M59.4732 125.482C59.4418 125.482 59.4111 125.482 59.3804 125.48C59.3876 125.476 59.3954 125.471 59.4026 125.467C59.4262 125.468 59.4497 125.468 59.4726 125.468C60.427 125.468 61.3821 125.104 62.1107 124.375C62.7135 123.772 63.067 123.016 63.1708 122.231C63.0699 123.022 62.7158 123.786 62.1084 124.393C61.3808 125.121 60.4264 125.482 59.4732 125.482Z" fill="#131B2B"/>
<path d="M59.4728 125.468C59.4499 125.468 59.4265 125.468 59.4028 125.466C59.6617 125.314 59.9072 125.128 60.1304 124.906C61.5868 123.449 61.588 121.087 60.1304 119.63C59.4259 118.926 58.5071 118.565 57.5828 118.541C58.1656 118.199 58.8208 118.027 59.4759 118.027C60.4285 118.027 61.3811 118.39 62.1086 119.117C62.9587 119.967 63.3128 121.125 63.171 122.231C63.0672 123.015 62.7137 123.772 62.111 124.375C61.3823 125.104 60.4272 125.468 59.4728 125.468Z" fill="#B98D35"/>
<path d="M83.9234 122.121C85.3797 123.579 85.3808 125.941 83.9234 127.397C82.4658 128.855 80.1045 128.854 78.6488 127.397C77.1919 125.941 77.1919 123.579 78.6488 122.121C80.1064 120.665 82.467 120.665 83.9234 122.121Z" fill="#44B5C2"/>
<path d="M81.2858 128.504C81.255 128.504 81.2236 128.504 81.1929 128.503C81.2007 128.498 81.2086 128.494 81.2163 128.489C81.24 128.489 81.2628 128.49 81.2865 128.49C82.2401 128.49 83.1952 128.126 83.9234 127.397C84.5237 126.798 84.876 126.046 84.9821 125.266C84.8789 126.052 84.5254 126.812 83.9209 127.416C83.1933 128.143 82.239 128.504 81.2858 128.504Z" fill="#131B2B"/>
<path d="M81.2863 128.49C81.2627 128.49 81.2398 128.489 81.2162 128.489C81.4744 128.334 81.72 128.151 81.9433 127.928C83.3989 126.472 83.4001 124.109 81.9433 122.653C81.238 121.947 80.3198 121.587 79.395 121.564C79.9777 121.221 80.6329 121.05 81.288 121.05C82.2406 121.05 83.1932 121.413 83.9207 122.14C84.7739 122.992 85.1274 124.155 84.9819 125.266C84.8758 126.046 84.5235 126.798 83.9232 127.397C83.195 128.126 82.24 128.49 81.2863 128.49Z" fill="#358F9D"/>
<path d="M134.668 97.7092C136.125 99.1656 136.126 101.527 134.668 102.985C133.211 104.441 130.85 104.441 129.394 102.985C127.936 101.527 127.936 99.1656 129.394 97.7092C130.851 96.2513 133.212 96.2528 134.668 97.7092Z" fill="#44B5C2"/>
<path d="M132.108 104.091C132.077 104.091 132.046 104.091 132.015 104.091C132.023 104.086 132.03 104.082 132.037 104.077C132.989 104.075 133.941 103.711 134.668 102.985C136.126 101.527 136.125 99.1658 134.668 97.7094C134.184 97.226 133.601 96.9032 132.984 96.7395C133.629 96.8939 134.241 97.2229 134.744 97.7263C136.202 99.1843 136.202 101.544 134.744 103.002C134.017 103.731 133.062 104.091 132.108 104.091Z" fill="#131B2B"/>
<path d="M132.038 104.077C132.298 103.922 132.543 103.738 132.767 103.516C134.223 102.058 134.223 99.6967 132.767 98.2388C132.061 97.5346 131.144 97.1732 130.219 97.15C130.801 96.8087 131.457 96.6373 132.112 96.6373C132.405 96.6373 132.698 96.6713 132.984 96.7392C133.601 96.9029 134.185 97.2257 134.668 97.7091C136.125 99.1655 136.126 101.527 134.668 102.985C133.942 103.711 132.99 104.075 132.038 104.077Z" fill="#358F9D"/>
<path d="M119.592 22.001C121.048 23.4573 121.049 25.8188 119.592 27.2751C118.134 28.7346 115.773 28.733 114.317 27.2751C112.86 25.8203 112.86 23.4589 114.317 22.001C115.774 20.5446 118.135 20.5446 119.592 22.001Z" fill="#EAB03E"/>
<path d="M116.745 22.3175L117.164 22.319V22.7375L116.745 22.3175Z" fill="#CDB838"/>
<path d="M117.025 28.384C116.996 28.384 116.968 28.384 116.938 28.3825C116.946 28.3779 116.954 28.3732 116.962 28.3686C117.914 28.3671 118.865 28.0026 119.592 27.2752C121.049 25.8188 121.048 23.4574 119.592 22.001C119.105 21.5145 118.516 21.1902 117.895 21.0281C118.545 21.181 119.16 21.5115 119.668 22.018C121.124 23.4744 121.124 25.8373 119.668 27.2937C118.939 28.0226 117.982 28.384 117.025 28.384Z" fill="#131B2B"/>
<path d="M116.962 28.3684C117.22 28.214 117.466 28.0302 117.689 27.8062C119.145 26.3514 119.146 23.9869 117.689 22.5306C116.984 21.8263 116.067 21.4649 115.142 21.4433C115.725 21.1004 116.38 20.929 117.036 20.929C117.325 20.929 117.613 20.9615 117.895 21.0279C118.516 21.19 119.105 21.5143 119.592 22.0008C121.048 23.4572 121.049 25.8186 119.592 27.275C118.865 28.0024 117.914 28.3669 116.962 28.3684Z" fill="#B98D35"/>
<path d="M129.663 36.3855C131.118 37.8403 131.12 40.2017 129.663 41.6596C128.204 43.1175 125.844 43.116 124.388 41.6596C122.931 40.2032 122.931 37.8418 124.388 36.3855C125.844 34.9276 128.206 34.9276 129.663 36.3855Z" fill="#FCD36D"/>
<path d="M127.024 42.7668C126.993 42.7668 126.962 42.7668 126.931 42.7668C126.939 42.7607 126.947 42.756 126.956 42.7514C126.979 42.7529 127.002 42.7529 127.025 42.7529C127.979 42.7529 128.934 42.3884 129.663 41.6595C130.248 41.0742 130.598 40.3437 130.712 39.5838C130.6 40.3498 130.249 41.0881 129.66 41.678C128.933 42.4054 127.978 42.7668 127.024 42.7668Z" fill="#131B2B"/>
<path d="M127.025 42.7532C127.002 42.7532 126.979 42.7532 126.956 42.7516C127.214 42.5987 127.459 42.4134 127.682 42.1895C129.138 40.7347 129.139 38.3717 127.682 36.9153C126.976 36.2095 126.059 35.8497 125.135 35.8265C125.717 35.4852 126.372 35.3138 127.027 35.3138C127.98 35.3138 128.932 35.6767 129.66 36.4041C130.527 37.2705 130.878 38.4566 130.713 39.5841C130.598 40.3439 130.248 41.0744 129.663 41.6597C128.934 42.3887 127.98 42.7532 127.025 42.7532Z" fill="#C8A756"/>
<mask id="mask0_8_20693" style="mask-type:luminance" maskUnits="userSpaceOnUse" x="83" y="115" width="3" height="1">
<path d="M83.7145 115.419C83.5547 115.419 83.3954 115.419 83.2368 115.416C83.3954 115.417 83.5547 115.419 83.7139 115.419C84.1676 115.419 84.6195 115.413 85.0702 115.399C84.6598 115.411 84.2484 115.419 83.8353 115.419C83.8231 115.419 83.8104 115.419 83.7984 115.419C83.7905 115.419 83.7834 115.419 83.7755 115.419C83.7544 115.419 83.7357 115.419 83.7145 115.419Z" fill="white"/>
</mask>
<g mask="url(#mask0_8_20693)">
<path d="M83.7145 115.419C83.5547 115.419 83.3954 115.419 83.2368 115.416C83.3954 115.417 83.5547 115.419 83.7139 115.419C84.1676 115.419 84.6195 115.413 85.0702 115.399C84.6598 115.411 84.2484 115.419 83.8353 115.419C83.8231 115.419 83.8104 115.419 83.7984 115.419C83.7905 115.419 83.7834 115.419 83.7755 115.419C83.7544 115.419 83.7357 115.419 83.7145 115.419Z" fill="url(#paint0_linear_8_20693)"/>
</g>
<defs>
<linearGradient id="paint0_linear_8_20693" x1="59.2352" y1="51.888" x2="134.415" y2="110.32" gradientUnits="userSpaceOnUse">
<stop stop-color="#211C1C"/>
<stop offset="0.606061" stop-color="#211C1C"/>
<stop offset="1" stop-color="#5B5E62"/>
</linearGradient>
</defs>
</svg>
