<svg width="168" height="141" viewBox="0 0 168 141" fill="none" xmlns="http://www.w3.org/2000/svg">
<path d="M131.682 26.8517C131.682 30.1351 129.021 32.7961 125.738 32.7961C122.453 32.7961 119.793 30.1351 119.793 26.8517C119.793 23.5683 122.453 20.9073 125.738 20.9073C129.021 20.9073 131.682 23.5683 131.682 26.8517Z" fill="#ED1C24"/>
<path d="M124.323 24.8704C123.884 24.8704 123.529 24.5152 123.529 24.0781C123.529 23.6395 123.884 23.2858 124.323 23.2858C124.76 23.2858 125.115 23.6395 125.115 24.0781C125.115 24.5152 124.76 24.8704 124.323 24.8704Z" fill="#F8A7B5"/>
<path d="M125.87 32.813C125.602 32.813 125.337 32.796 125.078 32.7605C125.296 32.7852 125.515 32.796 125.737 32.796C129.021 32.796 131.682 30.135 131.682 26.8516C131.682 24.1381 129.864 21.8493 127.381 21.1373C127.374 21.1311 127.37 21.125 127.364 21.1203C129.921 21.7844 131.816 24.101 131.816 26.8686C131.816 30.1519 129.154 32.813 125.87 32.813Z" fill="#131B2B"/>
<path d="M125.737 32.7961C125.515 32.7961 125.296 32.7853 125.078 32.7606C123.705 32.5768 122.48 31.922 121.569 30.966C122.048 31.0896 122.547 31.1622 123.064 31.1622C126.346 31.1622 129.008 28.5011 129.008 25.2177C129.008 23.6362 128.388 22.2015 127.381 21.1374C129.864 21.8494 131.682 24.1382 131.682 26.8517C131.682 30.1351 129.021 32.7961 125.737 32.7961Z" fill="#C31E25"/>
<path d="M143.535 44.2988C143.535 48.444 140.174 51.8062 136.028 51.8062C131.881 51.8062 128.522 48.444 128.522 44.2988C128.522 40.1521 131.881 36.7914 136.028 36.7914C140.174 36.7914 143.535 40.1521 143.535 44.2988Z" fill="#F79229"/>
<path d="M135.999 51.8262C133.861 51.8262 131.935 50.9274 130.567 49.4926C130.585 49.4972 130.604 49.5018 130.622 49.5065C131.986 50.9242 133.904 51.8061 136.028 51.8061C137.639 51.8061 139.132 51.298 140.354 50.4347C139.126 51.3104 137.623 51.8262 135.999 51.8262Z" fill="#131B2B"/>
<path d="M136.028 51.8062C133.904 51.8062 131.986 50.9243 130.622 49.5065C131.209 49.6532 131.821 49.7413 132.454 49.7413C136.599 49.7413 139.961 46.3807 139.961 42.234C139.961 40.2262 139.169 38.4069 137.886 37.0602C141.115 37.8988 143.506 40.8255 143.506 44.3189C143.506 46.8424 142.262 49.0741 140.354 50.4347C139.132 51.2981 137.639 51.8062 136.028 51.8062Z" fill="#CA751C"/>
<path d="M135.151 41.3814C135.151 41.8988 134.731 42.3188 134.213 42.3188C133.694 42.3188 133.273 41.8988 133.273 41.3814C133.273 40.8625 133.694 40.4424 134.213 40.4424C134.731 40.4424 135.151 40.8625 135.151 41.3814Z" fill="white"/>
</svg>
