<svg width="168" height="141" viewBox="0 0 168 141" fill="none" xmlns="http://www.w3.org/2000/svg">
<path d="M132.086 27.5427C132.086 31.6879 128.726 35.05 124.581 35.05C120.432 35.05 117.073 31.6879 117.073 27.5427C117.073 23.396 120.432 20.0353 124.581 20.0353C128.726 20.0353 132.086 23.396 132.086 27.5427Z" fill="#EFE2F3"/>
<path d="M124.604 35.0701C123.157 35.0701 121.807 34.6593 120.661 33.9473C121.802 34.6469 123.145 35.05 124.581 35.05C128.726 35.05 132.087 31.6878 132.087 27.5427C132.087 25.7249 131.441 24.0569 130.365 22.7581C131.455 24.0585 132.111 25.7341 132.111 27.5643C132.111 31.711 128.752 35.0701 124.604 35.0701Z" fill="#131B2B"/>
<path d="M124.581 35.05C123.145 35.05 121.803 34.6469 120.661 33.9473C120.114 33.6076 119.616 33.1998 119.174 32.738C119.776 32.8925 120.406 32.9852 121.06 32.9852C125.205 32.9852 128.567 29.6261 128.567 25.4794C128.567 23.4716 127.775 21.6524 126.49 20.3041C128.028 20.7041 129.375 21.5767 130.365 22.7581C131.441 24.057 132.087 25.7249 132.087 27.5427C132.087 31.6879 128.726 35.05 124.581 35.05Z" fill="#BEB2C9"/>
<path d="M106.612 16.9958C108.066 18.4522 108.068 20.8136 106.612 22.2715C105.154 23.7279 102.792 23.7279 101.336 22.2715C99.8812 20.8151 99.8812 18.4537 101.336 16.9958C102.792 15.5394 105.155 15.5394 106.612 16.9958Z" fill="#D9BCE2"/>
<path d="M104.025 23.3789C103.994 23.3789 103.963 23.3789 103.932 23.3774C103.94 23.3727 103.948 23.3681 103.955 23.3634C103.961 23.3634 103.968 23.3634 103.974 23.3634C104.928 23.3634 105.883 22.999 106.612 22.2716C108.068 20.8137 108.067 18.4523 106.612 16.9959C106.244 16.6283 105.818 16.3534 105.364 16.1712C105.836 16.3534 106.278 16.633 106.66 17.0144C108.117 18.4708 108.117 20.8322 106.66 22.2901C105.932 23.0175 104.978 23.3789 104.025 23.3789Z" fill="#131B2B"/>
<path d="M103.974 23.3635C103.968 23.3635 103.962 23.3635 103.955 23.3635C104.213 23.2106 104.459 23.0253 104.681 22.8029C106.138 21.3466 106.138 18.9836 104.681 17.5272C103.977 16.823 103.058 16.4616 102.135 16.4385C102.717 16.0956 103.372 15.9242 104.028 15.9242C104.482 15.9242 104.935 16.0076 105.364 16.1713C105.818 16.3535 106.244 16.6284 106.612 16.996C108.067 18.4523 108.068 20.8137 106.612 22.2717C105.883 22.9991 104.928 23.3635 103.974 23.3635Z" fill="#AA94C1"/>
</svg>
