<svg width="168" height="141" viewBox="0 0 168 141" fill="none" xmlns="http://www.w3.org/2000/svg">
<path d="M92.3138 27.3355C95.1849 27.8607 98.0016 28.6816 100.721 29.7787C125.668 16.7788 146.007 12.2251 151.361 19.8056C156.547 27.1468 146.297 43.9379 126.937 62.4115C118.477 70.4783 108.288 78.868 96.8753 86.9328C85.4589 94.9977 74.1494 101.8 63.7192 107.076C39.8378 119.153 20.588 123.205 15.4001 115.862C10.0469 108.284 21.1307 90.6366 41.7208 71.4646C41.5924 68.5351 41.7617 65.6055 42.2246 62.7247C12.0291 88.7477 -5.0246 114.323 2.50143 124.975C9.77652 135.273 37.8693 128.582 71.0001 110.268C80.485 105.025 90.3803 98.8375 100.324 91.8134C110.264 84.7873 119.403 77.5297 127.514 70.3422C155.846 45.2295 171.533 20.9882 164.259 10.6903C156.733 0.0402344 126.929 7.56822 92.3138 27.3355Z" fill="#F89C1A"/>
<path d="M100.721 29.7789C102.24 30.3936 103.728 31.0899 105.178 31.8816C105.714 32.1734 106.242 32.4788 106.769 32.794C123.519 25.0112 136.449 22.6536 140.073 27.7792C143.58 32.7434 137.556 43.5918 125.421 56.2532C117.322 64.7071 106.506 73.9644 93.9693 82.8229C81.4343 91.6775 69.0939 98.7814 58.4205 103.59C42.4348 110.797 30.1955 112.851 26.6883 107.887C23.0663 102.761 29.608 91.3624 42.5437 78.1719C42.4192 77.5708 42.3064 76.9697 42.211 76.3687C41.9504 74.7386 41.7909 73.1027 41.7208 71.4648C21.1308 90.6368 10.047 108.284 15.4002 115.862C20.5881 123.205 39.8379 119.154 63.7193 107.076C74.1495 101.8 85.4589 94.9979 96.8754 86.9331C108.288 78.8682 118.477 70.4786 126.937 62.4118C146.297 43.9381 156.547 27.147 151.361 19.8058C146.008 12.2253 125.668 16.779 100.721 29.7789Z" fill="#F7F458"/>
<path d="M106.769 32.7935C107.644 33.3246 108.506 33.8828 109.348 34.4781C110.502 35.2912 111.62 36.1685 112.7 37.1041C121.914 33.204 128.483 32.0855 130.314 34.6745C132.09 37.1878 129.086 42.7491 122.718 49.8316C115.512 57.8478 104.001 67.819 90.2383 77.5412C76.4779 87.2634 63.2349 94.7835 53.2715 98.8937C44.4675 102.531 38.2253 103.506 36.4493 100.993C34.6189 98.4016 37.8674 92.5835 44.6231 85.2014C44.0999 83.8709 43.6486 82.5248 43.2673 81.1651C42.9872 80.1731 42.7479 79.1732 42.5437 78.1715C29.608 91.3619 23.0663 102.761 26.6883 107.887C30.1955 112.851 42.4348 110.797 58.4205 103.59C69.0939 98.781 81.4343 91.677 93.9693 82.8224C106.506 73.9639 117.322 64.7067 125.421 56.2528C137.556 43.5914 143.58 32.743 140.073 27.7788C136.449 22.6531 123.519 25.0108 106.769 32.7935Z" fill="#B4541E"/>
</svg>
