<svg width="167" height="141" viewBox="0 0 167 141" fill="none" xmlns="http://www.w3.org/2000/svg">
<path d="M55.0494 24.1649C55.0494 27.4483 52.3884 30.1108 49.1035 30.1108C45.8201 30.1108 43.1606 27.4483 43.1606 24.1649C43.1606 20.8815 45.8201 18.2205 49.1035 18.2205C52.3884 18.2205 55.0494 20.8815 55.0494 24.1649Z" fill="#5D82CA"/>
<path d="M53.4988 28.1694C54.4625 27.1131 55.0494 25.7077 55.0494 24.1648C55.0494 21.4729 53.2609 19.1996 50.8069 18.4675C50.7652 18.4212 50.722 18.3748 50.6787 18.3301C53.2362 18.9941 55.1312 21.3107 55.1312 24.0783C55.1312 25.6629 54.5104 27.1038 53.4988 28.1694Z" fill="#131B2B"/>
<path d="M49.1854 30.0225C47.4927 30.0225 45.9669 29.3105 44.8843 28.1754C45.363 28.2974 45.8619 28.3715 46.3777 28.3715C49.6626 28.3715 52.3221 25.7105 52.3221 22.4271C52.3221 20.9043 51.7476 19.519 50.807 18.4673C53.2611 19.1993 55.0495 21.4727 55.0495 24.1646C55.0495 25.7074 54.4627 27.1128 53.499 28.1692C52.4163 29.3105 50.8843 30.0225 49.1854 30.0225Z" fill="#456BBD"/>
<path d="M64.2771 125.234C64.2771 128.517 61.6176 131.178 58.3343 131.178C55.0493 131.178 52.3883 128.517 52.3883 125.234C52.3883 121.95 55.0493 119.289 58.3343 119.289C61.6176 119.289 64.2771 121.95 64.2771 125.234Z" fill="#5D82CA"/>
<path d="M64.0702 123.67C63.5204 121.643 61.9235 120.047 59.8972 119.496C59.8663 119.463 59.8339 119.429 59.803 119.396C61.8895 119.939 63.5358 121.581 64.0702 123.67Z" fill="#131B2B"/>
<path d="M58.3096 131.09C56.6184 131.09 55.091 130.378 54.0084 129.243C54.4887 129.366 54.986 129.439 55.5034 129.439C58.7868 129.439 61.4462 126.778 61.4462 123.494C61.4462 121.953 60.8578 120.554 59.8972 119.496C61.9235 120.047 63.5204 121.643 64.0702 123.671C64.1906 124.142 64.2555 124.636 64.2555 125.145C64.2555 128.429 61.5945 131.09 58.3096 131.09Z" fill="#456BBD"/>
<path d="M130.586 28.5849C130.586 32.7316 127.225 36.0938 123.079 36.0938C118.932 36.0938 115.571 32.7316 115.571 28.5849C115.571 24.4397 118.932 21.0791 123.079 21.0791C127.225 21.0791 130.586 24.4397 130.586 28.5849Z" fill="#5D82CA"/>
<path d="M123.258 36.1138C122.946 36.1138 122.637 36.0937 122.336 36.0566C122.58 36.0813 122.827 36.0937 123.079 36.0937C127.226 36.0937 130.586 32.7315 130.586 28.5848C130.586 25.1655 128.299 22.279 125.17 21.374C125.162 21.3647 125.153 21.3555 125.145 21.3477C128.375 22.1863 130.765 25.113 130.765 28.6064C130.765 32.7531 127.406 36.1138 123.258 36.1138Z" fill="#131B2B"/>
<path d="M123.079 36.0938C122.827 36.0938 122.58 36.0814 122.336 36.0567C120.569 35.8389 118.995 35.0049 117.826 33.7787C118.43 33.9362 119.06 34.0289 119.714 34.0289C123.859 34.0289 127.221 30.6667 127.221 26.5216C127.221 24.5277 126.438 22.7177 125.17 21.3741C128.299 22.2791 130.586 25.1656 130.586 28.5849C130.586 32.7316 127.226 36.0938 123.079 36.0938Z" fill="#456BBD"/>
<path d="M142.748 48.4939C142.748 52.6391 139.388 56.0012 135.242 56.0012C131.094 56.0012 127.735 52.6391 127.735 48.4939C127.735 44.3472 131.094 40.9866 135.242 40.9866C139.388 40.9866 142.748 44.3472 142.748 48.4939Z" fill="#B0CAEC"/>
<path d="M135.318 56.0212C134.657 56.0212 134.016 55.9363 133.406 55.7741C133.993 55.9224 134.608 56.0011 135.243 56.0011C139.388 56.0011 142.748 52.639 142.748 48.4938C142.748 45.3232 140.784 42.6128 138.005 41.5116C140.821 42.5942 142.824 45.317 142.824 48.5154C142.824 52.6622 139.465 56.0212 135.318 56.0212Z" fill="#131B2B"/>
<path d="M135.242 56.0012C134.608 56.0012 133.993 55.9225 133.406 55.7742C132.042 55.4144 130.832 54.6792 129.886 53.6877C130.49 53.8437 131.12 53.9364 131.774 53.9364C135.917 53.9364 139.28 50.5757 139.28 46.429C139.28 44.4228 138.487 42.602 137.204 41.2553C137.477 41.3263 137.744 41.4113 138.005 41.5117C140.784 42.6128 142.748 45.3232 142.748 48.4939C142.748 52.6391 139.388 56.0012 135.242 56.0012Z" fill="#87A0D1"/>
<path d="M47.6054 114.825C47.6054 118.971 44.2448 122.331 40.0965 122.331C35.9498 122.331 32.5907 118.971 32.5907 114.825C32.5907 110.679 35.9498 107.318 40.0965 107.318C44.2448 107.318 47.6054 110.679 47.6054 114.825Z" fill="#B0CAEC"/>
<path d="M40.0688 122.353C37.9313 122.353 36.0039 121.454 34.6371 120.02C34.6556 120.024 34.6726 120.029 34.6896 120.032C36.0549 121.45 37.973 122.332 40.0966 122.332C41.7043 122.332 43.1931 121.827 44.4147 120.968C43.1884 121.839 41.6888 122.353 40.0688 122.353Z" fill="#131B2B"/>
<path d="M40.0965 122.331C37.973 122.331 36.0548 121.449 34.6896 120.032C35.278 120.18 35.888 120.268 36.5228 120.268C40.6664 120.268 44.0301 116.906 44.0301 112.761C44.0301 110.753 43.2378 108.934 41.9544 107.585C45.1838 108.425 47.5745 111.352 47.5745 114.846C47.5745 117.372 46.3266 119.607 44.4147 120.968C43.193 121.826 41.7042 122.331 40.0965 122.331Z" fill="#87A0D1"/>
</svg>
